<svg xmlns="http://www.w3.org/2000/svg" xmlns:xlink="http://www.w3.org/1999/xlink" width="150" zoomAndPan="magnify" viewBox="0 0 112.5 112.499997" height="150" preserveAspectRatio="xMidYMid meet" version="1.0"><defs><g/><clipPath id="5610229b2d"><path d="M 12.320312 9.882812 L 99.683594 9.882812 L 99.683594 106.460938 L 12.320312 106.460938 Z M 12.320312 9.882812 " clip-rule="nonzero"/></clipPath><clipPath id="784369a5c1"><path d="M 99.683594 9.882812 L 99.683594 106.285156 L 56 91.222656 L 12.320312 106.285156 L 12.320312 9.882812 Z M 99.683594 9.882812 " clip-rule="nonzero"/></clipPath></defs><g clip-path="url(#5610229b2d)"><g clip-path="url(#784369a5c1)"><path fill="#a6a6a6" d="M 12.320312 9.882812 L 99.683594 9.882812 L 99.683594 106.121094 L 12.320312 106.121094 Z M 12.320312 9.882812 " fill-opacity="1" fill-rule="nonzero"/></g></g><g fill="#ffffff" fill-opacity="1"><g transform="translate(13.659967, 70.058825)"><g><path d="M 19.75 8.96875 C 16.269531 8.925781 13.523438 8.164062 11.515625 6.6875 C 9.515625 5.21875 8.515625 2.96875 8.515625 -0.0625 L 8.515625 -8.40625 C 8.515625 -10.332031 7.914062 -11.703125 6.71875 -12.515625 C 5.53125 -13.328125 3.820312 -13.734375 1.59375 -13.734375 L 1.59375 -17.875 C 3.820312 -17.914062 5.53125 -18.332031 6.71875 -19.125 C 7.914062 -19.914062 8.515625 -21.257812 8.515625 -23.15625 L 8.515625 -31.546875 C 8.515625 -34.578125 9.550781 -36.828125 11.625 -38.296875 C 13.707031 -39.773438 16.414062 -40.515625 19.75 -40.515625 L 19.75 -36.4375 C 17.78125 -36.351562 16.238281 -35.90625 15.125 -35.09375 C 14.007812 -34.28125 13.453125 -32.945312 13.453125 -31.09375 L 13.453125 -22.921875 C 13.453125 -19.023438 11.390625 -16.71875 7.265625 -16 L 7.265625 -15.65625 C 11.390625 -14.9375 13.453125 -12.628906 13.453125 -8.734375 L 13.453125 -0.390625 C 13.453125 1.460938 14 2.796875 15.09375 3.609375 C 16.1875 4.421875 17.738281 4.84375 19.75 4.875 Z M 19.75 8.96875 "/></g></g></g><g fill="#ffffff" fill-opacity="1"><g transform="translate(35.227206, 70.058825)"><g><path d="M 6.242188 -8.742188 C 0.113281 -8.742188 0.113281 0.398438 6.242188 0.398438 C 12.316406 0.398438 12.484375 -8.742188 6.242188 -8.742188 Z M 6.242188 -8.742188 "/></g></g></g><g fill="#ffffff" fill-opacity="1"><g transform="translate(49.075636, 70.058825)"><g><path d="M 6.242188 -8.742188 C 0.113281 -8.742188 0.113281 0.398438 6.242188 0.398438 C 12.316406 0.398438 12.484375 -8.742188 6.242188 -8.742188 Z M 6.242188 -8.742188 "/></g></g></g><g fill="#ffffff" fill-opacity="1"><g transform="translate(62.924065, 70.058825)"><g><path d="M 6.242188 -8.742188 C 0.113281 -8.742188 0.113281 0.398438 6.242188 0.398438 C 12.316406 0.398438 12.484375 -8.742188 6.242188 -8.742188 Z M 6.242188 -8.742188 "/></g></g></g><g fill="#ffffff" fill-opacity="1"><g transform="translate(76.772492, 70.058825)"><g><path d="M 1.8125 8.96875 L 1.8125 4.875 C 3.78125 4.800781 5.320312 4.359375 6.4375 3.546875 C 7.550781 2.734375 8.109375 1.398438 8.109375 -0.453125 L 8.109375 -8.6875 C 8.109375 -12.582031 10.171875 -14.890625 14.296875 -15.609375 L 14.296875 -15.953125 C 10.171875 -16.671875 8.109375 -18.976562 8.109375 -22.875 L 8.109375 -31.15625 C 8.109375 -33.007812 7.5625 -34.34375 6.46875 -35.15625 C 5.375 -35.96875 3.820312 -36.394531 1.8125 -36.4375 L 1.8125 -40.515625 C 5.289062 -40.484375 8.03125 -39.726562 10.03125 -38.25 C 12.039062 -36.769531 13.046875 -34.519531 13.046875 -31.5 L 13.046875 -23.203125 C 13.046875 -21.273438 13.640625 -19.90625 14.828125 -19.09375 C 16.023438 -18.28125 17.738281 -17.875 19.96875 -17.875 L 19.96875 -13.734375 C 17.738281 -13.691406 16.023438 -13.273438 14.828125 -12.484375 C 13.640625 -11.691406 13.046875 -10.347656 13.046875 -8.453125 L 13.046875 0 C 13.046875 3.03125 12.003906 5.28125 9.921875 6.75 C 7.847656 8.226562 5.144531 8.96875 1.8125 8.96875 Z M 1.8125 8.96875 "/></g></g></g></svg>